<?xml version="1.0" encoding="UTF-8" standalone="no"?>
<!-- Created with Inkscape (http://www.inkscape.org/) -->
<svg
   xmlns:dc="http://purl.org/dc/elements/1.1/"
   xmlns:cc="http://web.resource.org/cc/"
   xmlns:rdf="http://www.w3.org/1999/02/22-rdf-syntax-ns#"
   xmlns:svg="http://www.w3.org/2000/svg"
   xmlns="http://www.w3.org/2000/svg"
   xmlns:sodipodi="http://sodipodi.sourceforge.net/DTD/sodipodi-0.dtd"
   xmlns:inkscape="http://www.inkscape.org/namespaces/inkscape"
   version="1.0"
   width="275"
   height="720"
   id="svg2"
   sodipodi:version="0.32"
   inkscape:version="0.44"
   sodipodi:docname="projection main aspect ratio.svg"
   sodipodi:docbase="M:\Documents and Settings\Kyle_the_hacker\Bureau">
  <metadata
     id="metadata18">
    <rdf:RDF>
      <cc:Work
         rdf:about="">
        <dc:format>image/svg+xml</dc:format>
        <dc:type
           rdf:resource="http://purl.org/dc/dcmitype/StillImage" />
      </cc:Work>
    </rdf:RDF>
  </metadata>
  <sodipodi:namedview
     inkscape:window-height="813"
     inkscape:window-width="1152"
     inkscape:pageshadow="2"
     inkscape:pageopacity="0.0"
     guidetolerance="10.0"
     gridtolerance="10.0"
     objecttolerance="10.0"
     borderopacity="1.0"
     bordercolor="#666666"
     pagecolor="#ffffff"
     id="base"
     height="720px"
     inkscape:zoom="0.43563218"
     inkscape:cx="137.5"
     inkscape:cy="435"
     inkscape:window-x="-4"
     inkscape:window-y="-4"
     inkscape:current-layer="svg2" />
  <defs
     id="defs4" />
  <path
     id="rect1872"
     style="fill:black;fill-opacity:1;fill-rule:evenodd;stroke:none;stroke-width:2.125139;stroke-linecap:round;stroke-linejoin:round;stroke-miterlimit:4;stroke-opacity:1"
     d="M 10,610 L 265,610 L 265,710 L 10,710 L 10,610 z " />
  <path
     id="rect2760"
     style="fill:black;fill-opacity:1;fill-rule:evenodd;stroke:none;stroke-width:3;stroke-linecap:round;stroke-linejoin:round;stroke-miterlimit:4;stroke-opacity:1"
     d="M 20,490 L 255,490 L 255,590 L 20,590 L 20,490 z " />
  <path
     id="rect3647"
     style="fill:black;fill-opacity:1;fill-rule:evenodd;stroke:none;stroke-width:3;stroke-linecap:round;stroke-linejoin:round;stroke-miterlimit:4;stroke-opacity:1"
     d="M 45,370 L 230,370 L 230,470 L 45,470 L 45,370 z " />
  <path
     id="rect3649"
     style="fill:black;fill-opacity:1;fill-rule:evenodd;stroke:none;stroke-width:3;stroke-linecap:round;stroke-linejoin:round;stroke-miterlimit:4;stroke-opacity:1"
     d="M 48.611,250 L 226.38799,250 L 226.38799,350 L 48.611,350 L 48.611,250 z " />
  <path
     id="rect3651"
     style="fill:black;fill-opacity:1;fill-rule:evenodd;stroke:none;stroke-width:3;stroke-linecap:round;stroke-linejoin:round;stroke-miterlimit:4;stroke-opacity:1"
     d="M 54.5,130 L 220.5,130 L 220.5,230 L 54.5,230 L 54.5,130 z " />
  <path
     id="rect3653"
     style="fill:black;fill-opacity:1;fill-rule:evenodd;stroke:none;stroke-width:3;stroke-linecap:round;stroke-linejoin:round;stroke-miterlimit:4;stroke-opacity:1"
     d="M 70.833,10 L 204.16599,10 L 204.16599,110 L 70.833,110 L 70.833,10 z " />
  <path
     id="flowRoot4564"
     style="font-size:18px;text-align:center;text-anchor:middle;fill:white;fill-opacity:1"
     d="M 119.85105,66.328125 L 118.26902,66.328125 L 118.26902,56.24707 C 117.88816,56.610361 117.38865,56.973642 116.77049,57.336914 C 116.15232,57.700204 115.59715,57.972664 115.10496,58.154296 L 115.10496,56.625 C 115.98972,56.208994 116.76316,55.705088 117.42527,55.113281 C 118.08738,54.521496 118.55613,53.947278 118.83152,53.390625 L 119.85105,53.390625 L 119.85105,66.328125 z M 124.76414,66.328125 L 124.76414,64.526367 L 126.5659,64.526367 L 126.5659,66.328125 C 126.5659,66.990233 126.44871,67.524901 126.21434,67.932128 C 125.97996,68.339353 125.60789,68.654294 125.09813,68.876953 L 124.65867,68.200195 C 124.99265,68.053709 125.23875,67.838377 125.39695,67.554199 C 125.55515,67.270018 125.64304,66.861327 125.66063,66.328125 L 124.76414,66.328125 z M 128.91258,62.926757 L 130.49461,62.71582 C 130.67625,63.612307 130.98533,64.258302 131.42186,64.653808 C 131.85838,65.049317 132.39011,65.247071 133.01707,65.24707 C 133.76121,65.247071 134.38962,64.989259 134.90232,64.473632 C 135.41501,63.95801 135.67136,63.319339 135.67137,62.557617 C 135.67136,61.831059 135.43406,61.231938 134.95945,60.760253 C 134.48484,60.28858 133.88132,60.05274 133.14891,60.052734 C 132.85007,60.05274 132.478,60.111334 132.0327,60.228515 L 132.20848,58.839843 C 132.31394,58.85157 132.3989,58.857429 132.46336,58.857421 C 133.13718,58.857429 133.74363,58.681648 134.2827,58.330078 C 134.82175,57.978524 135.09128,57.436532 135.09129,56.704101 C 135.09128,56.124033 134.89499,55.643565 134.50242,55.262695 C 134.10984,54.881847 133.603,54.691417 132.98191,54.691406 C 132.36668,54.691417 131.85398,54.884777 131.44383,55.271484 C 131.03367,55.658213 130.77,56.238291 130.65281,57.011718 L 129.07078,56.730468 C 129.26414,55.669932 129.70359,54.848156 130.38914,54.265136 C 131.07468,53.682141 131.92722,53.390638 132.94676,53.390625 C 133.64988,53.390638 134.29734,53.541516 134.88914,53.843261 C 135.48093,54.145031 135.93357,54.556652 136.24705,55.078125 C 136.56052,55.59962 136.71726,56.15333 136.71727,56.739257 C 136.71726,57.295907 136.56784,57.802742 136.26902,58.259765 C 135.97019,58.716804 135.52781,59.080085 134.94188,59.349609 C 135.70359,59.525397 136.29538,59.890143 136.71727,60.443847 C 137.13913,60.997564 137.35007,61.690434 137.35008,62.522461 C 137.35007,63.647463 136.93991,64.601076 136.11961,65.3833 C 135.29929,66.165527 134.26218,66.55664 133.00828,66.55664 C 131.87742,66.55664 130.93845,66.219726 130.19139,65.545898 C 129.44432,64.872071 129.01805,63.999025 128.91258,62.926757 L 128.91258,62.926757 z M 138.93211,62.926757 L 140.51414,62.71582 C 140.69578,63.612307 141.00486,64.258302 141.44139,64.653808 C 141.87791,65.049317 142.40964,65.247071 143.0366,65.24707 C 143.78074,65.247071 144.40915,64.989259 144.92186,64.473632 C 145.43454,63.95801 145.69089,63.319339 145.6909,62.557617 C 145.69089,61.831059 145.45359,61.231938 144.97898,60.760253 C 144.50437,60.28858 143.90085,60.05274 143.16844,60.052734 C 142.8696,60.05274 142.49753,60.111334 142.05223,60.228515 L 142.22801,58.839843 C 142.33347,58.85157 142.41843,58.857429 142.48289,58.857421 C 143.15671,58.857429 143.76316,58.681648 144.30223,58.330078 C 144.84128,57.978524 145.11081,57.436532 145.11082,56.704101 C 145.11081,56.124033 144.91452,55.643565 144.52195,55.262695 C 144.12937,54.881847 143.62253,54.691417 143.00145,54.691406 C 142.38621,54.691417 141.87351,54.884777 141.46336,55.271484 C 141.0532,55.658213 140.78953,56.238291 140.67234,57.011718 L 139.09031,56.730468 C 139.28367,55.669932 139.72312,54.848156 140.40867,54.265136 C 141.09422,53.682141 141.94675,53.390638 142.96629,53.390625 C 143.66941,53.390638 144.31687,53.541516 144.90867,53.843261 C 145.50046,54.145031 145.9531,54.556652 146.26658,55.078125 C 146.58005,55.59962 146.73679,56.15333 146.7368,56.739257 C 146.73679,57.295907 146.58737,57.802742 146.28855,58.259765 C 145.98972,58.716804 145.54734,59.080085 144.96141,59.349609 C 145.72312,59.525397 146.31491,59.890143 146.7368,60.443847 C 147.15866,60.997564 147.3696,61.690434 147.36961,62.522461 C 147.3696,63.647463 146.95944,64.601076 146.13914,65.3833 C 145.31882,66.165527 144.28171,66.55664 143.02781,66.55664 C 141.89695,66.55664 140.95799,66.219726 140.21092,65.545898 C 139.46385,64.872071 139.03758,63.999025 138.93211,62.926757 L 138.93211,62.926757 z M 149.82176,58.795898 L 149.82176,56.99414 L 151.62352,56.99414 L 151.62352,58.795898 L 149.82176,58.795898 z M 149.82176,66.328125 L 149.82176,64.526367 L 151.62352,64.526367 L 151.62352,66.328125 L 149.82176,66.328125 z M 159.89402,66.328125 L 158.31199,66.328125 L 158.31199,56.24707 C 157.93113,56.610361 157.43162,56.973642 156.81346,57.336914 C 156.19529,57.700204 155.64011,57.972664 155.14793,58.154296 L 155.14793,56.625 C 156.03269,56.208994 156.80613,55.705088 157.46824,55.113281 C 158.13035,54.521496 158.5991,53.947278 158.87449,53.390625 L 159.89402,53.390625 L 159.89402,66.328125 z M 123.85887,92.616211 C 122.98582,91.514645 122.24754,90.225584 121.64402,88.749023 C 121.04051,87.272462 120.73875,85.743167 120.73875,84.161132 C 120.73875,82.766607 120.96433,81.430671 121.41551,80.15332 C 121.94285,78.670908 122.7573,77.194347 123.85887,75.723632 L 124.99266,75.723632 C 124.28367,76.942394 123.81492,77.812511 123.58641,78.333984 C 123.22898,79.142587 122.94773,79.986337 122.74266,80.865234 C 122.4907,81.960944 122.36472,83.062505 122.36473,84.169921 C 122.36472,86.988283 123.2407,89.80371 124.99266,92.616211 L 123.85887,92.616211 z M 131.47898,88.828125 L 131.47898,85.743164 L 125.88914,85.743164 L 125.88914,84.292968 L 131.76902,75.943359 L 133.06102,75.943359 L 133.06102,84.292968 L 134.80125,84.292968 L 134.80125,85.743164 L 133.06102,85.743164 L 133.06102,88.828125 L 131.47898,88.828125 z M 131.47898,84.292968 L 131.47898,78.483398 L 127.4448,84.292968 L 131.47898,84.292968 z M 135.68016,89.047851 L 139.41551,75.723632 L 140.68113,75.723632 L 136.95457,89.047851 L 135.68016,89.047851 z M 141.4282,85.426757 L 143.01023,85.21582 C 143.19187,86.112307 143.50095,86.758302 143.93748,87.153808 C 144.374,87.549317 144.90574,87.747071 145.5327,87.74707 C 146.27683,87.747071 146.90525,87.489259 147.41795,86.973632 C 147.93064,86.45801 148.18698,85.819339 148.18699,85.057617 C 148.18698,84.331059 147.94968,83.731938 147.47508,83.260253 C 147.00046,82.78858 146.39695,82.55274 145.66453,82.552734 C 145.3657,82.55274 144.99363,82.611334 144.54832,82.728515 L 144.7241,81.339843 C 144.82957,81.35157 144.91453,81.357429 144.97898,81.357421 C 145.65281,81.357429 146.25925,81.181648 146.79832,80.830078 C 147.33738,80.478524 147.60691,79.936532 147.60691,79.204101 C 147.60691,78.624033 147.41062,78.143565 147.01805,77.762695 C 146.62546,77.381847 146.11863,77.191417 145.49754,77.191406 C 144.8823,77.191417 144.36961,77.384777 143.95945,77.771484 C 143.54929,78.158213 143.28562,78.738291 143.16844,79.511718 L 141.58641,79.230468 C 141.77976,78.169932 142.21922,77.348156 142.90477,76.765136 C 143.59031,76.182141 144.44285,75.890638 145.46238,75.890625 C 146.1655,75.890638 146.81296,76.041516 147.40477,76.343261 C 147.99656,76.645031 148.44919,77.056652 148.76268,77.578125 C 149.07614,78.09962 149.23288,78.65333 149.23289,79.239257 C 149.23288,79.795907 149.08347,80.302742 148.78465,80.759765 C 148.48581,81.216804 148.04343,81.580085 147.4575,81.849609 C 148.21921,82.025397 148.81101,82.390143 149.23289,82.943847 C 149.65476,83.497564 149.86569,84.190434 149.8657,85.022461 C 149.86569,86.147463 149.45554,87.101076 148.63523,87.8833 C 147.81491,88.665527 146.77781,89.05664 145.52391,89.05664 C 144.39304,89.05664 143.45408,88.719726 142.70701,88.045898 C 141.95994,87.372071 141.53367,86.499025 141.4282,85.426757 L 141.4282,85.426757 z M 152.91551,92.616211 L 151.78172,92.616211 C 153.53367,89.80371 154.40964,86.988283 154.40965,84.169921 C 154.40964,83.068365 154.28367,81.975592 154.03172,80.891601 C 153.8325,80.012704 153.55418,79.168955 153.19676,78.360351 C 152.96824,77.833018 152.49656,76.954113 151.78172,75.723632 L 152.91551,75.723632 C 154.01707,77.194347 154.83152,78.670908 155.35887,80.15332 C 155.81003,81.430671 156.03562,82.766607 156.03563,84.161132 C 156.03562,85.743167 155.7324,87.272462 155.12596,88.749023 C 154.51951,90.225584 153.78269,91.514645 152.91551,92.616211 L 152.91551,92.616211 z " />
  <path
     id="flowRoot5471"
     style="font-size:18px;text-align:center;text-anchor:middle;fill:white;fill-opacity:1"
     d="M 119.85156,185.19432 L 118.26953,185.19432 L 118.26953,175.11327 C 117.88867,175.47656 117.38916,175.83984 116.771,176.20311 C 116.15283,176.5664 115.59766,176.83886 115.10547,177.02049 L 115.10547,175.4912 C 115.99023,175.07519 116.76367,174.57129 117.42578,173.97948 C 118.08789,173.38769 118.55664,172.81348 118.83203,172.25682 L 119.85156,172.25682 L 119.85156,185.19432 z M 124.76465,185.19432 L 124.76465,183.39256 L 126.56641,183.39256 L 126.56641,185.19432 C 126.56641,185.85643 126.44922,186.3911 126.21485,186.79833 C 125.98047,187.20555 125.6084,187.52049 125.09864,187.74315 L 124.65918,187.06639 C 124.99316,186.91991 125.23926,186.70458 125.39746,186.4204 C 125.55566,186.13622 125.64355,185.72753 125.66114,185.19432 L 124.76465,185.19432 z M 137.11328,175.46483 L 135.54004,175.58788 C 135.39941,174.96679 135.20019,174.51562 134.94239,174.23436 C 134.51464,173.7832 133.9873,173.55762 133.36035,173.5576 C 132.85644,173.55762 132.41406,173.69824 132.03321,173.97948 C 131.53516,174.34277 131.14258,174.87304 130.85547,175.5703 C 130.56836,176.26757 130.41895,177.26074 130.40723,178.54979 C 130.78809,177.96972 131.25391,177.53906 131.80469,177.2578 C 132.35547,176.97656 132.93261,176.83593 133.53614,176.83592 C 134.59082,176.83593 135.48876,177.22412 136.22998,178.00047 C 136.97118,178.77685 137.34179,179.78026 137.3418,181.01073 C 137.34179,181.81933 137.16747,182.57079 136.81885,183.26512 C 136.47021,183.95946 135.99121,184.4912 135.38184,184.86034 C 134.77246,185.22948 134.08105,185.41405 133.30762,185.41405 C 131.98926,185.41405 130.91406,184.92919 130.08203,183.95946 C 129.25,182.98974 128.83399,181.39159 128.83399,179.16503 C 128.83399,176.6748 129.29395,174.86426 130.21387,173.73339 C 131.0166,172.74902 132.09765,172.25684 133.45703,172.25682 C 134.4707,172.25684 135.30126,172.54101 135.94873,173.10936 C 136.59619,173.67773 136.98437,174.46289 137.11328,175.46483 L 137.11328,175.46483 z M 130.65332,181.01952 C 130.65332,181.56444 130.76904,182.08593 131.00049,182.58397 C 131.23193,183.08202 131.55566,183.46141 131.97168,183.72216 C 132.38769,183.9829 132.82422,184.11327 133.28125,184.11327 C 133.94922,184.11327 134.52343,183.84374 135.00391,183.30467 C 135.48437,182.76561 135.7246,182.03319 135.72461,181.10741 C 135.7246,180.21679 135.4873,179.51513 135.0127,179.00243 C 134.53808,178.48974 133.94043,178.23339 133.21973,178.23339 C 132.50488,178.23339 131.89844,178.48974 131.40039,179.00243 C 130.90234,179.51513 130.65332,180.18749 130.65332,181.01952 L 130.65332,181.01952 z M 147.13281,175.46483 L 145.55957,175.58788 C 145.41894,174.96679 145.21972,174.51562 144.96192,174.23436 C 144.53418,173.7832 144.00683,173.55762 143.37989,173.5576 C 142.87597,173.55762 142.43359,173.69824 142.05274,173.97948 C 141.55469,174.34277 141.16211,174.87304 140.875,175.5703 C 140.58789,176.26757 140.43848,177.26074 140.42676,178.54979 C 140.80762,177.96972 141.27344,177.53906 141.82422,177.2578 C 142.375,176.97656 142.95215,176.83593 143.55567,176.83592 C 144.61035,176.83593 145.5083,177.22412 146.24951,178.00047 C 146.99072,178.77685 147.36132,179.78026 147.36133,181.01073 C 147.36132,181.81933 147.187,182.57079 146.83838,183.26512 C 146.48974,183.95946 146.01074,184.4912 145.40137,184.86034 C 144.79199,185.22948 144.10058,185.41405 143.32715,185.41405 C 142.00879,185.41405 140.93359,184.92919 140.10156,183.95946 C 139.26953,182.98974 138.85352,181.39159 138.85352,179.16503 C 138.85352,176.6748 139.31348,174.86426 140.2334,173.73339 C 141.03613,172.74902 142.11719,172.25684 143.47656,172.25682 C 144.49023,172.25684 145.3208,172.54101 145.96826,173.10936 C 146.61572,173.67773 147.0039,174.46289 147.13281,175.46483 L 147.13281,175.46483 z M 140.67285,181.01952 C 140.67285,181.56444 140.78857,182.08593 141.02002,182.58397 C 141.25146,183.08202 141.57519,183.46141 141.99121,183.72216 C 142.40722,183.9829 142.84375,184.11327 143.30078,184.11327 C 143.96875,184.11327 144.54296,183.84374 145.02344,183.30467 C 145.5039,182.76561 145.74414,182.03319 145.74414,181.10741 C 145.74414,180.21679 145.50683,179.51513 145.03223,179.00243 C 144.55761,178.48974 143.95996,178.23339 143.23926,178.23339 C 142.52441,178.23339 141.91797,178.48974 141.41992,179.00243 C 140.92187,179.51513 140.67285,180.18749 140.67285,181.01952 L 140.67285,181.01952 z M 149.82227,177.6621 L 149.82227,175.86034 L 151.62403,175.86034 L 151.62403,177.6621 L 149.82227,177.6621 z M 149.82227,185.19432 L 149.82227,183.39256 L 151.62403,183.39256 L 151.62403,185.19432 L 149.82227,185.19432 z M 159.89453,185.19432 L 158.3125,185.19432 L 158.3125,175.11327 C 157.93164,175.47656 157.43213,175.83984 156.81397,176.20311 C 156.1958,176.5664 155.64062,176.83886 155.14844,177.02049 L 155.14844,175.4912 C 156.0332,175.07519 156.80664,174.57129 157.46875,173.97948 C 158.13086,173.38769 158.59961,172.81348 158.875,172.25682 L 159.89453,172.25682 L 159.89453,185.19432 z " />
  <path
     id="flowRoot5494"
     style="font-size:18px;text-align:center;text-anchor:middle;fill:white;fill-opacity:1"
     d="M 119.27537,305.14942 L 117.69334,305.14942 L 117.69334,295.06837 C 117.31248,295.43166 116.81297,295.79494 116.19481,296.15821 C 115.57664,296.5215 115.02147,296.79396 114.52928,296.97559 L 114.52928,295.4463 C 115.41404,295.03029 116.18748,294.52639 116.84959,293.93458 C 117.5117,293.34279 117.98045,292.76858 118.25584,292.21192 L 119.27537,292.21192 L 119.27537,305.14942 z M 124.18846,305.14942 L 124.18846,303.34767 L 125.99022,303.34767 L 125.99022,305.14942 C 125.99022,305.81153 125.87303,306.3462 125.63866,306.75343 C 125.40428,307.16065 125.03221,307.47559 124.52245,307.69825 L 124.08299,307.02149 C 124.41697,306.87501 124.66307,306.65967 124.82127,306.3755 C 124.97947,306.09132 125.06736,305.68263 125.08495,305.14942 L 124.18846,305.14942 z M 128.43358,293.95216 L 128.43358,292.43165 L 136.7744,292.43165 L 136.7744,293.66212 C 135.95408,294.53518 135.14109,295.69533 134.33543,297.14259 C 133.52976,298.58986 132.90721,300.07814 132.46776,301.60743 C 132.15135,302.68556 131.9492,303.86622 131.86131,305.14942 L 130.23534,305.14942 C 130.25291,304.13575 130.45213,302.91114 130.83299,301.47559 C 131.21385,300.04005 131.76023,298.65578 132.47215,297.32276 C 133.18406,295.98976 133.94138,294.86623 134.74412,293.95216 L 128.43358,293.95216 z M 138.45311,293.95216 L 138.45311,292.43165 L 146.79393,292.43165 L 146.79393,293.66212 C 145.97361,294.53518 145.16062,295.69533 144.35496,297.14259 C 143.54929,298.58986 142.92674,300.07814 142.48729,301.60743 C 142.17088,302.68556 141.96873,303.86622 141.88084,305.14942 L 140.25487,305.14942 C 140.27244,304.13575 140.47166,302.91114 140.85252,301.47559 C 141.23338,300.04005 141.77977,298.65578 142.49168,297.32276 C 143.20359,295.98976 143.96092,294.86623 144.76366,293.95216 L 138.45311,293.95216 z M 149.24608,297.6172 L 149.24608,295.81544 L 151.04784,295.81544 L 151.04784,297.6172 L 149.24608,297.6172 z M 149.24608,305.14942 L 149.24608,303.34767 L 151.04784,303.34767 L 151.04784,305.14942 L 149.24608,305.14942 z M 159.31834,305.14942 L 157.73631,305.14942 L 157.73631,295.06837 C 157.35545,295.43166 156.85594,295.79494 156.23778,296.15821 C 155.61961,296.5215 155.06443,296.79396 154.57225,296.97559 L 154.57225,295.4463 C 155.45701,295.03029 156.23045,294.52639 156.89256,293.93458 C 157.55467,293.34279 158.02342,292.76858 158.29881,292.21192 L 159.31834,292.21192 L 159.31834,305.14942 z M 118.27342,331.43751 C 117.40037,330.33594 116.66209,329.04688 116.05858,327.57032 C 115.45506,326.09376 115.1533,324.56447 115.1533,322.98243 C 115.1533,321.5879 115.37889,320.25197 115.83006,318.97462 C 116.3574,317.49221 117.17186,316.01565 118.27342,314.54493 L 119.40721,314.54493 C 118.69822,315.76369 118.22947,316.63381 118.00096,317.15528 C 117.64354,317.96389 117.36229,318.80764 117.15721,319.68653 C 116.90525,320.78224 116.77928,321.8838 116.77928,322.99122 C 116.77928,325.80958 117.65525,328.62501 119.40721,331.43751 L 118.27342,331.43751 z M 126.78123,327.64942 L 125.1992,327.64942 L 125.1992,317.56837 C 124.81834,317.93166 124.31883,318.29494 123.70067,318.65821 C 123.0825,319.0215 122.52733,319.29396 122.03514,319.47559 L 122.03514,317.9463 C 122.9199,317.53029 123.69334,317.02639 124.35545,316.43458 C 125.01756,315.84279 125.48631,315.26858 125.7617,314.71192 L 126.78123,314.71192 L 126.78123,327.64942 z M 139.05077,317.91993 L 137.47752,318.04298 C 137.33689,317.42189 137.13767,316.97072 136.87987,316.68946 C 136.45213,316.2383 135.92478,316.01272 135.29784,316.0127 C 134.79392,316.01272 134.35154,316.15334 133.97069,316.43458 C 133.47264,316.79787 133.08006,317.32814 132.79295,318.0254 C 132.50584,318.72267 132.35643,319.71584 132.34471,321.00489 C 132.72557,320.42482 133.19139,319.99416 133.74217,319.7129 C 134.29295,319.43166 134.8701,319.29103 135.47362,319.29102 C 136.5283,319.29103 137.42625,319.67922 138.16746,320.45558 C 138.90867,321.23195 139.27927,322.23537 139.27928,323.46583 C 139.27927,324.27443 139.10496,325.02589 138.75633,325.72022 C 138.40769,326.41456 137.92869,326.9463 137.31932,327.31544 C 136.70994,327.68458 136.01853,327.86915 135.2451,327.86915 C 133.92674,327.86915 132.85154,327.38429 132.01952,326.41456 C 131.18748,325.44484 130.77147,323.84669 130.77147,321.62013 C 130.77147,319.1299 131.23143,317.31936 132.15135,316.18849 C 132.95408,315.20412 134.03514,314.71194 135.39452,314.71192 C 136.40818,314.71194 137.23875,314.99612 137.88621,315.56446 C 138.53367,316.13283 138.92185,316.91799 139.05077,317.91993 L 139.05077,317.91993 z M 132.5908,323.47462 C 132.5908,324.01954 132.70652,324.54103 132.93797,325.03907 C 133.16941,325.53712 133.49314,325.91651 133.90916,326.17726 C 134.32518,326.438 134.7617,326.56837 135.21873,326.56837 C 135.8867,326.56837 136.46092,326.29884 136.94139,325.75977 C 137.42185,325.22071 137.66209,324.48829 137.66209,323.56251 C 137.66209,322.67189 137.42478,321.97023 136.95018,321.45753 C 136.47556,320.94484 135.87791,320.68849 135.15721,320.68849 C 134.44236,320.68849 133.83592,320.94484 133.33787,321.45753 C 132.83983,321.97023 132.5908,322.64259 132.5908,323.47462 L 132.5908,323.47462 z M 140.11424,327.86915 L 143.84959,314.54493 L 145.11522,314.54493 L 141.38866,327.86915 L 140.11424,327.86915 z M 146.0908,324.66993 L 147.61131,324.52931 C 147.74022,325.24415 147.98631,325.76271 148.34959,326.08497 C 148.71287,326.40724 149.17869,326.56837 149.74705,326.56837 C 150.23338,326.56837 150.65965,326.45704 151.02586,326.23438 C 151.39207,326.01173 151.69236,325.71437 151.92674,325.34229 C 152.16111,324.97023 152.3574,324.46778 152.51561,323.83497 C 152.6738,323.20216 152.75291,322.55763 152.75291,321.90138 C 152.75291,321.83107 152.74998,321.7256 152.74412,321.58497 C 152.42771,322.08888 151.99558,322.49757 151.44774,322.81104 C 150.89988,323.12453 150.30662,323.28126 149.66795,323.28126 C 148.60154,323.28126 147.6992,322.89454 146.96092,322.1211 C 146.22264,321.34767 145.8535,320.32814 145.8535,319.06251 C 145.8535,317.75588 146.23875,316.70412 147.00926,315.90724 C 147.77977,315.11037 148.7451,314.71194 149.90526,314.71192 C 150.74314,314.71194 151.50926,314.93752 152.2036,315.38868 C 152.89793,315.83986 153.42527,316.48293 153.78563,317.31788 C 154.14597,318.15285 154.32615,319.36135 154.32616,320.94337 C 154.32615,322.58986 154.14744,323.90089 153.79002,324.87647 C 153.43259,325.85206 152.90086,326.59474 152.19481,327.1045 C 151.48875,327.61427 150.66111,327.86915 149.7119,327.86915 C 148.70408,327.86915 147.88084,327.58936 147.24217,327.02979 C 146.6035,326.47023 146.21971,325.6836 146.0908,324.66993 L 146.0908,324.66993 z M 152.56834,318.98341 C 152.56834,318.07521 152.32664,317.35451 151.84325,316.8213 C 151.35984,316.28811 150.7783,316.02151 150.09862,316.02149 C 149.39549,316.02151 148.78318,316.30861 148.2617,316.88282 C 147.74022,317.45705 147.47947,318.20119 147.47948,319.11524 C 147.47947,319.93556 147.72703,320.60207 148.22215,321.11476 C 148.71727,321.62746 149.3281,321.8838 150.05467,321.8838 C 150.78709,321.8838 151.38914,321.62746 151.86082,321.11476 C 152.3325,320.60207 152.56834,319.89162 152.56834,318.98341 L 152.56834,318.98341 z M 157.34959,331.43751 L 156.2158,331.43751 C 157.96775,328.62501 158.84373,325.80958 158.84373,322.99122 C 158.84373,321.88966 158.71775,320.79689 158.4658,319.7129 C 158.26658,318.834 157.98826,317.99025 157.63084,317.18165 C 157.40233,316.65432 156.93065,315.77541 156.2158,314.54493 L 157.34959,314.54493 C 158.45115,316.01565 159.2656,317.49221 159.79295,318.97462 C 160.24412,320.25197 160.46971,321.5879 160.46971,322.98243 C 160.46971,324.56447 160.16648,326.09376 159.56004,327.57032 C 158.95359,329.04688 158.21678,330.33594 157.34959,331.43751 L 157.34959,331.43751 z " />
  <path
     id="flowRoot5512"
     style="font-size:18px;text-align:center;text-anchor:middle;fill:white;fill-opacity:1"
     d="M 119.85156,425.19432 L 118.26953,425.19432 L 118.26953,415.11327 C 117.88867,415.47656 117.38916,415.83984 116.771,416.20311 C 116.15283,416.5664 115.59766,416.83886 115.10547,417.02049 L 115.10547,415.4912 C 115.99023,415.07519 116.76367,414.57129 117.42578,413.97948 C 118.08789,413.38769 118.55664,412.81348 118.83203,412.25682 L 119.85156,412.25682 L 119.85156,425.19432 z M 124.76465,425.19432 L 124.76465,423.39256 L 126.56641,423.39256 L 126.56641,425.19432 C 126.56641,425.85643 126.44922,426.3911 126.21485,426.79833 C 125.98047,427.20555 125.6084,427.52049 125.09864,427.74315 L 124.65918,427.06639 C 124.99316,426.91991 125.23926,426.70457 125.39746,426.4204 C 125.55566,426.13622 125.64355,425.72753 125.66114,425.19432 L 124.76465,425.19432 z M 131.33887,418.20702 C 130.68262,417.96679 130.19629,417.62402 129.87989,417.1787 C 129.56348,416.73339 129.40527,416.20019 129.40528,415.57909 C 129.40527,414.6416 129.74219,413.85351 130.41602,413.21483 C 131.08984,412.57617 131.98633,412.25684 133.10547,412.25682 C 134.23046,412.25684 135.13574,412.58349 135.82129,413.2368 C 136.50683,413.89013 136.8496,414.68554 136.84961,415.62303 C 136.8496,416.2207 136.69286,416.74072 136.3794,417.18309 C 136.06591,417.62548 135.58984,417.96679 134.95117,418.20702 C 135.74218,418.46484 136.34423,418.88085 136.75733,419.45506 C 137.1704,420.02929 137.37695,420.71483 137.37696,421.51171 C 137.37695,422.61327 136.9873,423.53905 136.20801,424.28905 C 135.42871,425.03905 134.40332,425.41405 133.13184,425.41405 C 131.86035,425.41405 130.83496,425.03758 130.05567,424.28466 C 129.27637,423.53173 128.88672,422.59276 128.88672,421.46776 C 128.88672,420.62987 129.09912,419.92822 129.52393,419.36278 C 129.94873,418.79736 130.55371,418.4121 131.33887,418.20702 L 131.33887,418.20702 z M 131.02246,415.52635 C 131.02246,416.13574 131.21875,416.63378 131.61133,417.02049 C 132.0039,417.40722 132.51367,417.60058 133.14063,417.60057 C 133.75,417.60058 134.24951,417.40869 134.63916,417.02489 C 135.0288,416.64111 135.22363,416.17089 135.22364,415.61424 C 135.22363,415.03418 135.02294,414.54638 134.62158,414.15087 C 134.22021,413.75537 133.7207,413.55762 133.12305,413.5576 C 132.51953,413.55762 132.01855,413.75097 131.62012,414.13768 C 131.22168,414.52441 131.02246,414.9873 131.02246,415.52635 L 131.02246,415.52635 z M 130.5127,421.47655 C 130.5127,421.92772 130.61963,422.36425 130.8335,422.78612 C 131.04736,423.208 131.36523,423.53466 131.78711,423.7661 C 132.20898,423.99755 132.66308,424.11327 133.14942,424.11327 C 133.90527,424.11327 134.52929,423.8701 135.02149,423.38378 C 135.51367,422.89745 135.75976,422.27929 135.75977,421.52928 C 135.75976,420.76757 135.50634,420.13769 134.99951,419.63964 C 134.49267,419.14159 133.85839,418.89257 133.09668,418.89256 C 132.35254,418.89257 131.73584,419.13867 131.24658,419.63085 C 130.75732,420.12304 130.5127,420.73827 130.5127,421.47655 L 130.5127,421.47655 z M 138.92383,421.81932 L 140.58496,421.6787 C 140.70801,422.48729 140.99365,423.0952 141.4419,423.50243 C 141.89014,423.90966 142.43066,424.11327 143.06348,424.11327 C 143.82519,424.11327 144.46972,423.82616 144.99707,423.25194 C 145.52441,422.67772 145.78808,421.91601 145.78809,420.96678 C 145.78808,420.06444 145.53466,419.35253 145.02783,418.83104 C 144.52099,418.30956 143.85742,418.04882 143.03711,418.04881 C 142.52734,418.04882 142.06738,418.16454 141.65723,418.39598 C 141.24707,418.62743 140.9248,418.92773 140.69043,419.29686 L 139.20508,419.1035 L 140.45313,412.48534 L 146.86035,412.48534 L 146.86035,413.99706 L 141.71875,413.99706 L 141.02442,417.45995 C 141.79785,416.92089 142.60937,416.65136 143.45899,416.65135 C 144.58398,416.65136 145.5332,417.04101 146.30664,417.8203 C 147.08007,418.5996 147.46679,419.60156 147.4668,420.82616 C 147.46679,421.99218 147.12695,422.99999 146.44727,423.8496 C 145.62109,424.89256 144.49316,425.41405 143.06348,425.41405 C 141.8916,425.41405 140.93506,425.08592 140.19385,424.42967 C 139.45264,423.77343 139.0293,422.90331 138.92383,421.81932 L 138.92383,421.81932 z M 149.82227,417.6621 L 149.82227,415.86034 L 151.62403,415.86034 L 151.62403,417.6621 L 149.82227,417.6621 z M 149.82227,425.19432 L 149.82227,423.39256 L 151.62403,423.39256 L 151.62403,425.19432 L 149.82227,425.19432 z M 159.89453,425.19432 L 158.3125,425.19432 L 158.3125,415.11327 C 157.93164,415.47656 157.43213,415.83984 156.81397,416.20311 C 156.1958,416.5664 155.64062,416.83886 155.14844,417.02049 L 155.14844,415.4912 C 156.0332,415.07519 156.80664,414.57129 157.46875,413.97948 C 158.13086,413.38769 158.59961,412.81348 158.875,412.25682 L 159.89453,412.25682 L 159.89453,425.19432 z " />
  <path
     id="flowRoot5522"
     style="font-size:18px;text-align:center;text-anchor:middle;fill:white;fill-opacity:1"
     d="M 121.31933,543.13771 L 121.31933,544.65822 L 112.80273,544.65822 C 112.79101,544.27736 112.85254,543.91115 112.9873,543.55959 C 113.2041,542.97951 113.55127,542.40823 114.02881,541.84572 C 114.50634,541.28323 115.19628,540.63284 116.09863,539.89455 C 117.49902,538.74612 118.4453,537.83645 118.9375,537.16555 C 119.42968,536.49466 119.67577,535.86038 119.67578,535.26271 C 119.67577,534.63577 119.45165,534.10696 119.00342,533.67629 C 118.55517,533.24564 117.97069,533.03031 117.25,533.03029 C 116.48827,533.03031 115.8789,533.25882 115.42187,533.71584 C 114.96484,534.17288 114.73339,534.80569 114.72754,535.61428 L 113.10156,535.44728 C 113.21289,534.2344 113.63183,533.31009 114.3584,532.67434 C 115.08496,532.03861 116.06054,531.72074 117.28515,531.72072 C 118.52148,531.72074 119.49999,532.06351 120.2207,532.74904 C 120.9414,533.4346 121.30175,534.28421 121.30176,535.29787 C 121.30175,535.8135 121.19628,536.32034 120.98535,536.81838 C 120.7744,537.31643 120.42431,537.84085 119.93506,538.39162 C 119.44579,538.94241 118.6328,539.69827 117.49609,540.6592 C 116.54687,541.45608 115.93749,541.9966 115.66797,542.28078 C 115.39843,542.56496 115.17578,542.85061 115,543.13771 L 121.31933,543.13771 z M 123.87695,544.65822 L 123.87695,542.85646 L 125.67871,542.85646 L 125.67871,544.65822 C 125.67871,545.32033 125.56152,545.855 125.32715,546.26223 C 125.09277,546.66945 124.7207,546.98439 124.21094,547.20705 L 123.77148,546.53029 C 124.10546,546.38381 124.35156,546.16847 124.50976,545.8843 C 124.66796,545.60012 124.75585,545.19142 124.77344,544.65822 L 123.87695,544.65822 z M 128.02539,541.25685 L 129.60742,541.04592 C 129.78906,541.94241 130.09814,542.5884 130.53467,542.98391 C 130.97119,543.37941 131.50292,543.57717 132.12988,543.57717 C 132.87402,543.57717 133.50243,543.31936 134.01513,542.80373 C 134.52782,542.28811 134.78417,541.64944 134.78418,540.88771 C 134.78417,540.16116 134.54687,539.56204 134.07226,539.09035 C 133.59765,538.61868 132.99413,538.38284 132.26172,538.38283 C 131.96288,538.38284 131.59081,538.44143 131.14551,538.55861 L 131.32129,537.16994 C 131.42675,537.18167 131.51171,537.18753 131.57617,537.18752 C 132.24999,537.18753 132.85644,537.01175 133.39551,536.66018 C 133.93456,536.30862 134.20409,535.76663 134.2041,535.0342 C 134.20409,534.45413 134.0078,533.97366 133.61523,533.59279 C 133.22265,533.21195 132.71581,533.02151 132.09472,533.0215 C 131.47949,533.02151 130.96679,533.21488 130.55664,533.60158 C 130.14648,533.98831 129.88281,534.56839 129.76562,535.34182 L 128.18359,535.06057 C 128.37695,534.00003 128.8164,533.17825 129.50195,532.59523 C 130.18749,532.01224 131.04003,531.72074 132.05957,531.72072 C 132.76269,531.72074 133.41015,531.87161 134.00195,532.17336 C 134.59374,532.47513 135.04638,532.88675 135.35986,533.40822 C 135.67333,533.92972 135.83007,534.48343 135.83008,535.06935 C 135.83007,535.626 135.68065,536.13284 135.38183,536.58986 C 135.083,537.0469 134.64062,537.41018 134.05469,537.67971 C 134.8164,537.8555 135.40819,538.22024 135.83008,538.77394 C 136.25194,539.32766 136.46288,540.02053 136.46289,540.85256 C 136.46288,541.97756 136.05272,542.93117 135.23242,543.7134 C 134.4121,544.49563 133.37499,544.88674 132.12109,544.88674 C 130.99023,544.88674 130.05126,544.54982 129.3042,543.876 C 128.55713,543.20217 128.13086,542.32912 128.02539,541.25685 L 128.02539,541.25685 z M 138.03613,541.28322 L 139.69726,541.1426 C 139.82031,541.95119 140.10595,542.5591 140.5542,542.96633 C 141.00244,543.37356 141.54296,543.57717 142.17578,543.57717 C 142.93749,543.57717 143.58202,543.29006 144.10937,542.71584 C 144.63671,542.14162 144.90038,541.37991 144.90039,540.43068 C 144.90038,539.52834 144.64696,538.81643 144.14013,538.29494 C 143.63329,537.77346 142.96972,537.51272 142.14941,537.51271 C 141.63964,537.51272 141.17968,537.62844 140.76953,537.85988 C 140.35937,538.09133 140.0371,538.39163 139.80273,538.76076 L 138.31738,538.5674 L 139.56543,531.94924 L 145.97265,531.94924 L 145.97265,533.46096 L 140.83105,533.46096 L 140.13672,536.92385 C 140.91015,536.38479 141.72167,536.11526 142.57129,536.11525 C 143.69628,536.11526 144.6455,536.50491 145.41894,537.2842 C 146.19237,538.0635 146.57909,539.06545 146.5791,540.29006 C 146.57909,541.45608 146.23925,542.46389 145.55957,543.3135 C 144.73339,544.35646 143.60546,544.87795 142.17578,544.87795 C 141.0039,544.87795 140.04736,544.54982 139.30615,543.89357 C 138.56494,543.23733 138.1416,542.36721 138.03613,541.28322 L 138.03613,541.28322 z M 148.93457,537.126 L 148.93457,535.32424 L 150.73633,535.32424 L 150.73633,537.126 L 148.93457,537.126 z M 148.93457,544.65822 L 148.93457,542.85646 L 150.73633,542.85646 L 150.73633,544.65822 L 148.93457,544.65822 z M 159.00683,544.65822 L 157.4248,544.65822 L 157.4248,534.57717 C 157.04394,534.94046 156.54443,535.30374 155.92627,535.66701 C 155.3081,536.0303 154.75292,536.30276 154.26074,536.48439 L 154.26074,534.9551 C 155.1455,534.53909 155.91894,534.03519 156.58105,533.44338 C 157.24316,532.85159 157.71191,532.27738 157.9873,531.72072 L 159.00683,531.72072 L 159.00683,544.65822 z M 80.415039,570.94631 C 79.541988,569.84474 78.803708,568.55568 78.200195,567.07912 C 77.596678,565.60256 77.29492,564.07326 77.294921,562.49123 C 77.29492,561.0967 77.520506,559.76077 77.971679,558.48342 C 78.499021,557.00101 79.313473,555.52445 80.415039,554.05373 L 81.548828,554.05373 C 80.839839,555.27249 80.371089,556.14261 80.142578,556.66408 C 79.785152,557.47268 79.503902,558.31643 79.298828,559.19533 C 79.046872,560.29104 78.920895,561.3926 78.920898,562.50002 C 78.920895,565.31838 79.796871,568.13381 81.548828,570.94631 L 80.415039,570.94631 z M 92.798828,562.64064 L 94.503906,563.07131 C 94.146472,564.4717 93.503406,565.53957 92.574707,566.27492 C 91.645986,567.01027 90.510733,567.37795 89.168945,567.37795 C 87.780267,567.37795 86.650874,567.09523 85.780761,566.52981 C 84.910641,565.96438 84.248533,565.14553 83.794433,564.07326 C 83.34033,563.001 83.11328,561.84963 83.113281,560.61916 C 83.11328,559.27737 83.369627,558.10696 83.882324,557.10793 C 84.395017,556.10892 85.124508,555.35013 86.0708,554.83156 C 87.017085,554.31302 88.058587,554.05374 89.195312,554.05373 C 90.484366,554.05374 91.56835,554.38187 92.447265,555.0381 C 93.32616,555.69437 93.938464,556.61722 94.284179,557.80666 L 92.605468,558.20217 C 92.30663,557.26468 91.873037,556.58206 91.304687,556.15432 C 90.736319,555.72659 90.021476,555.51273 89.160156,555.51271 C 88.169915,555.51273 87.34228,555.75003 86.677246,556.22463 C 86.012203,556.69925 85.544918,557.33646 85.27539,558.13625 C 85.005856,558.93606 84.871091,559.76077 84.871093,560.61037 C 84.871091,561.70608 85.030758,562.66262 85.350097,563.48 C 85.66943,564.29739 86.166011,564.90823 86.839843,565.31252 C 87.513666,565.71682 88.243158,565.91897 89.02832,565.91896 C 89.98339,565.91897 90.791983,565.64358 91.454101,565.09279 C 92.116201,564.54201 92.564442,563.72463 92.798828,562.64064 L 92.798828,562.64064 z M 96.419921,556.09279 L 96.419921,554.27346 L 98.001953,554.27346 L 98.001953,556.09279 L 96.419921,556.09279 z M 96.419921,567.15822 L 96.419921,557.82424 L 98.001953,557.82424 L 98.001953,567.15822 L 96.419921,567.15822 z M 100.41894,567.15822 L 100.41894,557.82424 L 101.84277,557.82424 L 101.84277,559.15139 C 102.52832,558.126 103.51855,557.61331 104.81348,557.6133 C 105.37597,557.61331 105.89306,557.71438 106.36475,557.91652 C 106.83642,558.11868 107.18944,558.38382 107.42383,558.71193 C 107.65819,559.04007 107.82225,559.42971 107.91601,559.88088 C 107.9746,560.17386 108.00389,560.68655 108.0039,561.41896 L 108.0039,567.15822 L 106.42188,567.15822 L 106.42188,561.48049 C 106.42187,560.83596 106.36034,560.35403 106.2373,560.03469 C 106.11425,559.71536 105.89599,559.46048 105.58252,559.27004 C 105.26904,559.07962 104.90136,558.9844 104.47949,558.98439 C 103.80566,558.9844 103.22412,559.19827 102.73486,559.626 C 102.2456,560.05374 102.00097,560.86526 102.00098,562.06057 L 102.00098,567.15822 L 100.41894,567.15822 z M 116.82812,564.15236 L 118.46289,564.35451 C 118.20507,565.30959 117.72753,566.0508 117.03027,566.57814 C 116.333,567.10549 115.44237,567.36916 114.3584,567.36916 C 112.99316,567.36916 111.91064,566.94875 111.11084,566.10793 C 110.31103,565.26711 109.91113,564.08791 109.91113,562.57033 C 109.91113,561.00003 110.31543,559.78128 111.12402,558.91408 C 111.93261,558.0469 112.98144,557.61331 114.27051,557.6133 C 115.51855,557.61331 116.53808,558.03811 117.3291,558.88771 C 118.12011,559.73733 118.51561,560.93264 118.51562,562.47365 C 118.51561,562.56741 118.51268,562.70803 118.50683,562.89553 L 111.5459,562.89553 C 111.60449,563.92092 111.89453,564.70608 112.41601,565.251 C 112.93749,565.79592 113.58788,566.06838 114.36719,566.06838 C 114.94726,566.06838 115.44237,565.91604 115.85254,565.61135 C 116.26269,565.30666 116.58788,564.82033 116.82812,564.15236 L 116.82812,564.15236 z M 111.63379,561.59475 L 116.8457,561.59475 C 116.77538,560.8096 116.57616,560.22073 116.24804,559.82814 C 115.74413,559.21878 115.09081,558.91409 114.28808,558.91408 C 113.56152,558.91409 112.95068,559.15725 112.45556,559.64357 C 111.96044,560.12991 111.68652,560.7803 111.63379,561.59475 L 111.63379,561.59475 z M 113.34765,556.66408 L 114.5166,554.20314 L 116.59082,554.20314 L 114.65722,556.66408 L 113.34765,556.66408 z M 120.45801,567.15822 L 120.45801,557.82424 L 121.87304,557.82424 L 121.87304,559.13381 C 122.16601,558.67679 122.55566,558.30911 123.04199,558.03078 C 123.52831,557.75247 124.08202,557.61331 124.70312,557.6133 C 125.39452,557.61331 125.96142,557.75686 126.40381,558.04396 C 126.84618,558.33108 127.15819,558.73245 127.33984,559.24807 C 128.07811,558.15823 129.03905,557.61331 130.22265,557.6133 C 131.14842,557.61331 131.86034,557.86966 132.3584,558.38234 C 132.85643,558.89505 133.10545,559.6846 133.10547,560.751 L 133.10547,567.15822 L 131.53222,567.15822 L 131.53222,561.27834 C 131.53221,560.64553 131.48094,560.18997 131.37842,559.91164 C 131.27586,559.63333 131.08983,559.40921 130.82031,559.23928 C 130.55077,559.06936 130.23436,558.9844 129.87109,558.98439 C 129.21483,558.9844 128.66991,559.20266 128.23633,559.63918 C 127.80272,560.07571 127.58593,560.77444 127.58594,561.73537 L 127.58594,567.15822 L 126.0039,567.15822 L 126.0039,561.09377 C 126.0039,560.39065 125.87499,559.86331 125.61719,559.51174 C 125.35937,559.16018 124.93749,558.9844 124.35156,558.98439 C 123.90624,558.9844 123.49462,559.10159 123.1167,559.33596 C 122.73876,559.57034 122.46484,559.91311 122.29492,560.36428 C 122.12499,560.81545 122.04003,561.46584 122.04004,562.31545 L 122.04004,567.15822 L 120.45801,567.15822 z M 141.56054,566.00685 C 140.9746,566.5049 140.41064,566.85646 139.86865,567.06154 C 139.32665,567.26662 138.74511,567.36916 138.12402,567.36916 C 137.09863,567.36916 136.31054,567.11867 135.75976,566.61769 C 135.20898,566.11672 134.93359,565.47658 134.93359,564.69728 C 134.93359,564.24026 135.03759,563.82278 135.2456,563.44484 C 135.45361,563.06692 135.72607,562.7637 136.06299,562.53518 C 136.3999,562.30666 136.77929,562.13381 137.20117,562.01662 C 137.51171,561.93459 137.98046,561.85549 138.60742,561.77932 C 139.88476,561.62698 140.82519,561.44534 141.42871,561.23439 C 141.43456,561.0176 141.43749,560.87991 141.4375,560.82131 C 141.43749,560.17678 141.28808,559.72268 140.98926,559.459 C 140.58495,559.10159 139.98437,558.92288 139.1875,558.92287 C 138.44335,558.92288 137.89404,559.05325 137.53955,559.31398 C 137.18505,559.57473 136.92285,560.03616 136.75293,560.69826 L 135.20605,560.48732 C 135.34668,559.82522 135.57812,559.29055 135.90039,558.88332 C 136.22265,558.4761 136.68847,558.16263 137.29785,557.94289 C 137.90722,557.72317 138.61327,557.61331 139.41601,557.6133 C 140.21288,557.61331 140.86034,557.70706 141.3584,557.89455 C 141.85644,558.08206 142.22265,558.3179 142.45703,558.60207 C 142.6914,558.88626 142.85546,559.24514 142.94922,559.67873 C 143.00194,559.94827 143.02831,560.4346 143.02832,561.13771 L 143.02832,563.24709 C 143.02831,564.7178 143.062,565.64797 143.12939,566.03762 C 143.19677,566.42727 143.33007,566.8008 143.52929,567.15822 L 141.87695,567.15822 C 141.71288,566.8301 141.60741,566.44631 141.56054,566.00685 L 141.56054,566.00685 z M 141.42871,562.47365 C 140.85448,562.70803 139.99316,562.90725 138.84472,563.07131 C 138.19433,563.16506 137.73437,563.27053 137.46484,563.38771 C 137.19531,563.50491 136.9873,563.67629 136.84082,563.90188 C 136.69433,564.12746 136.62109,564.37795 136.62109,564.65334 C 136.62109,565.07522 136.78076,565.42678 137.1001,565.70803 C 137.41943,565.98928 137.88671,566.1299 138.50195,566.1299 C 139.11132,566.1299 139.65331,565.9966 140.12793,565.73 C 140.60253,565.4634 140.95116,565.09865 141.17383,564.63576 C 141.34374,564.27834 141.4287,563.751 141.42871,563.05373 L 141.42871,562.47365 z M 144.85644,564.37209 L 146.4209,564.126 C 146.50878,564.75295 146.75341,565.23342 147.15478,565.5674 C 147.55615,565.90139 148.11718,566.06838 148.83789,566.06838 C 149.56445,566.06838 150.10351,565.92043 150.45508,565.62453 C 150.80663,565.32863 150.98241,564.98147 150.98242,564.58303 C 150.98241,564.22561 150.82714,563.94436 150.5166,563.73928 C 150.2998,563.59866 149.76073,563.41994 148.89941,563.20314 C 147.73925,562.91018 146.93505,562.65676 146.48681,562.44289 C 146.03857,562.22903 145.69873,561.93313 145.46728,561.55519 C 145.23584,561.17727 145.12011,560.75979 145.12011,560.30275 C 145.12011,559.88675 145.21533,559.50149 145.40576,559.14699 C 145.59619,558.79251 145.85546,558.49807 146.18359,558.26369 C 146.42968,558.08206 146.76513,557.92825 147.18994,557.80227 C 147.61474,557.6763 148.07031,557.61331 148.55664,557.6133 C 149.28906,557.61331 149.93212,557.71878 150.48584,557.92971 C 151.03954,558.14065 151.44823,558.4263 151.71191,558.78664 C 151.97558,559.147 152.15722,559.62893 152.25683,560.23244 L 150.70996,560.44338 C 150.63964,559.96292 150.43603,559.58792 150.09912,559.31838 C 149.7622,559.04886 149.28613,558.91409 148.6709,558.91408 C 147.94433,558.91409 147.42578,559.03421 147.11523,559.27443 C 146.80468,559.51468 146.64941,559.79593 146.64941,560.11818 C 146.64941,560.32327 146.71386,560.50784 146.84277,560.67189 C 146.97167,560.84182 147.17382,560.98245 147.44922,561.09377 C 147.60742,561.15237 148.07324,561.28713 148.84668,561.49807 C 149.96581,561.7969 150.74657,562.04153 151.18896,562.23195 C 151.63134,562.42239 151.97851,562.69924 152.23047,563.06252 C 152.48241,563.4258 152.60839,563.87698 152.6084,564.41603 C 152.60839,564.94338 152.45458,565.43996 152.14697,565.90578 C 151.83935,566.3716 151.3955,566.73195 150.81543,566.98684 C 150.23534,567.24172 149.57909,567.36916 148.84668,567.36916 C 147.63378,567.36916 146.70947,567.11721 146.07373,566.6133 C 145.43798,566.1094 145.03222,565.36233 144.85644,564.37209 L 144.85644,564.37209 z M 160.58008,563.73928 L 162.13574,563.94143 C 161.96581,565.01369 161.53075,565.85305 160.83056,566.45949 C 160.13036,567.06594 159.2705,567.36916 158.25097,567.36916 C 156.97363,567.36916 155.94677,566.95168 155.17041,566.11672 C 154.39404,565.28176 154.00586,564.08498 154.00586,562.52639 C 154.00586,561.51858 154.17285,560.63675 154.50683,559.88088 C 154.84082,559.12503 155.34912,558.55813 156.03174,558.18019 C 156.71435,557.80228 157.45702,557.61331 158.25976,557.6133 C 159.27343,557.61331 160.10253,557.86966 160.74707,558.38234 C 161.39159,558.89505 161.80468,559.62307 161.98633,560.56643 L 160.44824,560.80373 C 160.30175,560.17678 160.04247,559.70511 159.67041,559.38869 C 159.29833,559.07229 158.84862,558.91409 158.32129,558.91408 C 157.52441,558.91409 156.87695,559.19973 156.3789,559.77102 C 155.88085,560.34231 155.63183,561.24612 155.63183,562.48244 C 155.63183,563.73635 155.87207,564.64748 156.35254,565.21584 C 156.833,565.7842 157.45995,566.06838 158.2334,566.06838 C 158.85448,566.06838 159.37304,565.87795 159.78906,565.49709 C 160.20507,565.11623 160.46874,564.5303 160.58008,563.73928 L 160.58008,563.73928 z M 162.90039,562.49123 C 162.90039,560.76272 163.38086,559.48245 164.34179,558.65041 C 165.14453,557.95901 166.12304,557.61331 167.27734,557.6133 C 168.56054,557.61331 169.60937,558.03372 170.42383,558.87453 C 171.23827,559.71536 171.6455,560.87698 171.64551,562.35939 C 171.6455,563.56057 171.46532,564.50539 171.10498,565.19387 C 170.74462,565.88234 170.2202,566.41701 169.53174,566.79787 C 168.84325,567.17873 168.09179,567.36916 167.27734,567.36916 C 165.9707,567.36916 164.91455,566.95021 164.10888,566.11232 C 163.30322,565.27443 162.90039,564.06741 162.90039,562.49123 L 162.90039,562.49123 z M 164.52636,562.49123 C 164.52636,563.68655 164.7871,564.58156 165.30859,565.17629 C 165.83007,565.77102 166.48632,566.06838 167.27734,566.06838 C 168.06249,566.06838 168.71581,565.76955 169.2373,565.17189 C 169.75878,564.57424 170.01952,563.66311 170.01953,562.4385 C 170.01952,561.2842 169.75731,560.40969 169.23291,559.81496 C 168.70849,559.22024 168.05663,558.92288 167.27734,558.92287 C 166.48632,558.92288 165.83007,559.21878 165.30859,559.81057 C 164.7871,560.40237 164.52636,561.29592 164.52636,562.49123 L 164.52636,562.49123 z M 173.50879,570.73537 L 173.50879,557.82424 L 174.95019,557.82424 L 174.95019,559.03713 C 175.29003,558.56253 175.67382,558.20657 176.10156,557.96926 C 176.52929,557.73196 177.04784,557.61331 177.65722,557.6133 C 178.45409,557.61331 179.15722,557.81839 179.7666,558.22853 C 180.37597,558.6387 180.83593,559.21731 181.14648,559.96438 C 181.45702,560.71145 181.61229,561.5303 181.6123,562.42092 C 181.61229,563.376 181.44091,564.23586 181.09814,565.00051 C 180.75536,565.76516 180.25731,566.35109 179.604,566.75832 C 178.95067,567.16555 178.26366,567.36916 177.54297,567.36916 C 177.01562,567.36916 176.54247,567.25783 176.12353,567.03518 C 175.70458,566.81252 175.36035,566.53127 175.09082,566.19143 L 175.09082,570.73537 L 173.50879,570.73537 z M 174.9414,562.54396 C 174.9414,563.74514 175.18456,564.63283 175.6709,565.20705 C 176.15722,565.78127 176.74609,566.06838 177.4375,566.06838 C 178.14062,566.06838 178.74267,565.77102 179.24365,565.17629 C 179.74462,564.58156 179.99511,563.66018 179.99511,562.41213 C 179.99511,561.22268 179.75048,560.33206 179.26123,559.74025 C 178.77196,559.14846 178.18749,558.85257 177.50781,558.85256 C 176.83398,558.85257 176.23779,559.16751 175.71924,559.79738 C 175.20068,560.42727 174.9414,561.3428 174.9414,562.54396 L 174.9414,562.54396 z M 189.91797,564.15236 L 191.55273,564.35451 C 191.29491,565.30959 190.81737,566.0508 190.12011,566.57814 C 189.42284,567.10549 188.53222,567.36916 187.44824,567.36916 C 186.083,567.36916 185.00048,566.94875 184.20068,566.10793 C 183.40088,565.26711 183.00097,564.08791 183.00097,562.57033 C 183.00097,561.00003 183.40527,559.78128 184.21386,558.91408 C 185.02246,558.0469 186.07128,557.61331 187.36035,557.6133 C 188.60839,557.61331 189.62792,558.03811 190.41894,558.88771 C 191.20995,559.73733 191.60546,560.93264 191.60547,562.47365 C 191.60546,562.56741 191.60253,562.70803 191.59668,562.89553 L 184.63574,562.89553 C 184.69433,563.92092 184.98437,564.70608 185.50586,565.251 C 186.02734,565.79592 186.67773,566.06838 187.45703,566.06838 C 188.0371,566.06838 188.53222,565.91604 188.94238,565.61135 C 189.35253,565.30666 189.67772,564.82033 189.91797,564.15236 L 189.91797,564.15236 z M 184.72363,561.59475 L 189.93554,561.59475 C 189.86522,560.8096 189.66601,560.22073 189.33789,559.82814 C 188.83398,559.21878 188.18066,558.91409 187.37793,558.91408 C 186.65136,558.91409 186.04052,559.15725 185.54541,559.64357 C 185.05029,560.12991 184.77636,560.7803 184.72363,561.59475 L 184.72363,561.59475 z M 194.58496,570.94631 L 193.45117,570.94631 C 195.20312,568.13381 196.0791,565.31838 196.0791,562.50002 C 196.0791,561.39846 195.95312,560.30569 195.70117,559.2217 C 195.50195,558.3428 195.22363,557.49905 194.86621,556.69045 C 194.63769,556.16312 194.16601,555.28421 193.45117,554.05373 L 194.58496,554.05373 C 195.68652,555.52445 196.50097,557.00101 197.02832,558.48342 C 197.47948,559.76077 197.70507,561.0967 197.70508,562.49123 C 197.70507,564.07326 197.40185,565.60256 196.79541,567.07912 C 196.18896,568.55568 195.45214,569.84474 194.58496,570.94631 L 194.58496,570.94631 z " />
  <path
     id="flowRoot5534"
     style="font-size:18px;text-align:center;text-anchor:middle;fill:white;fill-opacity:1"
     d="M 121.31933,663.13771 L 121.31933,664.65822 L 112.80273,664.65822 C 112.79101,664.27736 112.85254,663.91115 112.9873,663.55959 C 113.2041,662.97951 113.55127,662.40823 114.02881,661.84572 C 114.50634,661.28323 115.19628,660.63284 116.09863,659.89455 C 117.49902,658.74612 118.4453,657.83645 118.9375,657.16555 C 119.42968,656.49466 119.67577,655.86038 119.67578,655.26271 C 119.67577,654.63577 119.45165,654.10696 119.00342,653.67629 C 118.55517,653.24564 117.97069,653.03031 117.25,653.03029 C 116.48827,653.03031 115.8789,653.25882 115.42187,653.71584 C 114.96484,654.17288 114.73339,654.80569 114.72754,655.61428 L 113.10156,655.44728 C 113.21289,654.2344 113.63183,653.31009 114.3584,652.67434 C 115.08496,652.03861 116.06054,651.72074 117.28515,651.72072 C 118.52148,651.72074 119.49999,652.06351 120.2207,652.74904 C 120.9414,653.4346 121.30175,654.28421 121.30176,655.29787 C 121.30175,655.8135 121.19628,656.32034 120.98535,656.81838 C 120.7744,657.31643 120.42431,657.84085 119.93506,658.39162 C 119.44579,658.94241 118.6328,659.69827 117.49609,660.6592 C 116.54687,661.45608 115.93749,661.9966 115.66797,662.28078 C 115.39843,662.56496 115.17578,662.85061 115,663.13771 L 121.31933,663.13771 z M 123.87695,664.65822 L 123.87695,662.85646 L 125.67871,662.85646 L 125.67871,664.65822 C 125.67871,665.32033 125.56152,665.855 125.32715,666.26223 C 125.09277,666.66945 124.7207,666.98439 124.21094,667.20705 L 123.77148,666.53029 C 124.10546,666.38381 124.35156,666.16847 124.50976,665.8843 C 124.66796,665.60012 124.75585,665.19142 124.77344,664.65822 L 123.87695,664.65822 z M 128.0166,661.28322 L 129.67773,661.1426 C 129.80078,661.95119 130.08642,662.5591 130.53467,662.96633 C 130.9829,663.37356 131.52343,663.57717 132.15625,663.57717 C 132.91796,663.57717 133.56249,663.29006 134.08984,662.71584 C 134.61718,662.14162 134.88085,661.37991 134.88086,660.43068 C 134.88085,659.52834 134.62743,658.81643 134.1206,658.29494 C 133.61376,657.77346 132.95019,657.51272 132.12988,657.51271 C 131.62011,657.51272 131.16015,657.62844 130.75,657.85988 C 130.33984,658.09133 130.01757,658.39163 129.7832,658.76076 L 128.29785,658.5674 L 129.5459,651.94924 L 135.95312,651.94924 L 135.95312,653.46096 L 130.81152,653.46096 L 130.11719,656.92385 C 130.89062,656.38479 131.70214,656.11526 132.55176,656.11525 C 133.67675,656.11526 134.62597,656.50491 135.39941,657.2842 C 136.17284,658.0635 136.55956,659.06545 136.55957,660.29006 C 136.55956,661.45608 136.21972,662.46389 135.54004,663.3135 C 134.71386,664.35646 133.58593,664.87795 132.15625,664.87795 C 130.98437,664.87795 130.02783,664.54982 129.28662,663.89357 C 128.54541,663.23733 128.12207,662.36721 128.0166,661.28322 L 128.0166,661.28322 z M 138.03613,661.28322 L 139.69726,661.1426 C 139.82031,661.95119 140.10595,662.5591 140.5542,662.96633 C 141.00244,663.37356 141.54296,663.57717 142.17578,663.57717 C 142.93749,663.57717 143.58202,663.29006 144.10937,662.71584 C 144.63671,662.14162 144.90038,661.37991 144.90039,660.43068 C 144.90038,659.52834 144.64696,658.81643 144.14013,658.29494 C 143.63329,657.77346 142.96972,657.51272 142.14941,657.51271 C 141.63964,657.51272 141.17968,657.62844 140.76953,657.85988 C 140.35937,658.09133 140.0371,658.39163 139.80273,658.76076 L 138.31738,658.5674 L 139.56543,651.94924 L 145.97265,651.94924 L 145.97265,653.46096 L 140.83105,653.46096 L 140.13672,656.92385 C 140.91015,656.38479 141.72167,656.11526 142.57129,656.11525 C 143.69628,656.11526 144.6455,656.50491 145.41894,657.2842 C 146.19237,658.0635 146.57909,659.06545 146.5791,660.29006 C 146.57909,661.45608 146.23925,662.46389 145.55957,663.3135 C 144.73339,664.35646 143.60546,664.87795 142.17578,664.87795 C 141.0039,664.87795 140.04736,664.54982 139.30615,663.89357 C 138.56494,663.23733 138.1416,662.36721 138.03613,661.28322 L 138.03613,661.28322 z M 148.93457,657.126 L 148.93457,655.32424 L 150.73633,655.32424 L 150.73633,657.126 L 148.93457,657.126 z M 148.93457,664.65822 L 148.93457,662.85646 L 150.73633,662.85646 L 150.73633,664.65822 L 148.93457,664.65822 z M 159.00683,664.65822 L 157.4248,664.65822 L 157.4248,654.57717 C 157.04394,654.94046 156.54443,655.30374 155.92627,655.66701 C 155.3081,656.0303 154.75292,656.30276 154.26074,656.48439 L 154.26074,654.9551 C 155.1455,654.53909 155.91894,654.03519 156.58105,653.44338 C 157.24316,652.85159 157.71191,652.27738 157.9873,651.72072 L 159.00683,651.72072 L 159.00683,664.65822 z M 48.862302,690.94631 C 47.989252,689.84474 47.250971,688.55568 46.647458,687.07912 C 46.043941,685.60256 45.742184,684.07326 45.742185,682.49123 C 45.742184,681.0967 45.96777,679.76077 46.418943,678.48342 C 46.946284,677.00101 47.760737,675.52445 48.862302,674.05373 L 49.996091,674.05373 C 49.287102,675.27249 48.818353,676.14261 48.589841,676.66408 C 48.232416,677.47268 47.951166,678.31643 47.746091,679.19533 C 47.494135,680.29104 47.368159,681.3926 47.368162,682.50002 C 47.368159,685.31838 48.244135,688.13381 49.996091,690.94631 L 48.862302,690.94631 z M 61.246091,682.64064 L 62.951169,683.07131 C 62.593736,684.4717 61.95067,685.53957 61.02197,686.27492 C 60.09325,687.01027 58.957997,687.37795 57.616208,687.37795 C 56.227531,687.37795 55.098138,687.09523 54.228025,686.52981 C 53.357905,685.96438 52.695796,685.14553 52.241697,684.07326 C 51.787594,683.001 51.560543,681.84963 51.560544,680.61916 C 51.560543,679.27737 51.816891,678.10696 52.329587,677.10793 C 52.84228,676.10892 53.571772,675.35013 54.518064,674.83156 C 55.464348,674.31302 56.505851,674.05374 57.642576,674.05373 C 58.93163,674.05374 60.015613,674.38187 60.894529,675.0381 C 61.773424,675.69437 62.385728,676.61722 62.731443,677.80666 L 61.052732,678.20217 C 60.753894,677.26468 60.3203,676.58206 59.751951,676.15432 C 59.183583,675.72659 58.46874,675.51273 57.607419,675.51271 C 56.617179,675.51273 55.789543,675.75003 55.124509,676.22463 C 54.459466,676.69925 53.992182,677.33646 53.722654,678.13625 C 53.45312,678.93606 53.318354,679.76077 53.318357,680.61037 C 53.318354,681.70608 53.478022,682.66262 53.797361,683.48 C 54.116693,684.29739 54.613275,684.90823 55.287107,685.31252 C 55.96093,685.71682 56.690421,685.91897 57.475583,685.91896 C 58.430654,685.91897 59.239247,685.64358 59.901365,685.09279 C 60.563464,684.54201 61.011706,683.72463 61.246091,682.64064 L 61.246091,682.64064 z M 64.867185,676.09279 L 64.867185,674.27346 L 66.449216,674.27346 L 66.449216,676.09279 L 64.867185,676.09279 z M 64.867185,687.15822 L 64.867185,677.82424 L 66.449216,677.82424 L 66.449216,687.15822 L 64.867185,687.15822 z M 68.866208,687.15822 L 68.866208,677.82424 L 70.29004,677.82424 L 70.29004,679.15139 C 70.97558,678.126 71.96581,677.61331 73.26074,677.6133 C 73.82323,677.61331 74.34032,677.71438 74.81201,677.91652 C 75.28368,678.11868 75.63671,678.38382 75.87109,678.71193 C 76.10546,679.04007 76.26952,679.42971 76.36328,679.88088 C 76.42186,680.17386 76.45116,680.68655 76.45117,681.41896 L 76.45117,687.15822 L 74.86914,687.15822 L 74.86914,681.48049 C 74.86913,680.83596 74.80761,680.35403 74.68457,680.03469 C 74.56151,679.71536 74.34325,679.46048 74.02978,679.27004 C 73.7163,679.07962 73.34862,678.9844 72.92676,678.98439 C 72.25292,678.9844 71.67138,679.19827 71.18213,679.626 C 70.69287,680.05374 70.44824,680.86526 70.44824,682.06057 L 70.44824,687.15822 L 68.866208,687.15822 z M 85.27539,684.15236 L 86.91015,684.35451 C 86.65233,685.30959 86.17479,686.0508 85.47754,686.57814 C 84.78026,687.10549 83.88964,687.36916 82.80566,687.36916 C 81.44042,687.36916 80.3579,686.94875 79.5581,686.10793 C 78.7583,685.26711 78.3584,684.08791 78.3584,682.57033 C 78.3584,681.00003 78.76269,679.78128 79.57129,678.91408 C 80.37988,678.0469 81.4287,677.61331 82.71777,677.6133 C 83.96581,677.61331 84.98534,678.03811 85.77636,678.88771 C 86.56737,679.73733 86.96288,680.93264 86.96289,682.47365 C 86.96288,682.56741 86.95995,682.70803 86.9541,682.89553 L 79.99316,682.89553 C 80.05175,683.92092 80.34179,684.70608 80.86328,685.251 C 81.38476,685.79592 82.03515,686.06838 82.81445,686.06838 C 83.39452,686.06838 83.88964,685.91604 84.2998,685.61135 C 84.70995,685.30666 85.03515,684.82033 85.27539,684.15236 L 85.27539,684.15236 z M 80.08105,681.59475 L 85.29297,681.59475 C 85.22265,680.8096 85.02343,680.22073 84.69531,679.82814 C 84.1914,679.21878 83.53808,678.91409 82.73535,678.91408 C 82.00878,678.91409 81.39794,679.15725 80.90283,679.64357 C 80.40771,680.12991 80.13378,680.7803 80.08105,681.59475 L 80.08105,681.59475 z M 81.79492,676.66408 L 82.96386,674.20314 L 85.03808,674.20314 L 83.10449,676.66408 L 81.79492,676.66408 z M 88.90527,687.15822 L 88.90527,677.82424 L 90.32031,677.82424 L 90.32031,679.13381 C 90.61328,678.67679 91.00292,678.30911 91.48926,678.03078 C 91.97558,677.75247 92.52929,677.61331 93.15039,677.6133 C 93.84179,677.61331 94.40868,677.75686 94.85107,678.04396 C 95.29345,678.33108 95.60546,678.73245 95.78711,679.24807 C 96.52538,678.15823 97.48632,677.61331 98.66992,677.6133 C 99.59569,677.61331 100.3076,677.86966 100.80566,678.38234 C 101.30369,678.89505 101.55272,679.6846 101.55273,680.751 L 101.55273,687.15822 L 99.97949,687.15822 L 99.97949,681.27834 C 99.97948,680.64553 99.92821,680.18997 99.82568,679.91164 C 99.72313,679.63333 99.5371,679.40921 99.26758,679.23928 C 98.99803,679.06936 98.68163,678.9844 98.31836,678.98439 C 97.6621,678.9844 97.11718,679.20266 96.68359,679.63918 C 96.24999,680.07571 96.03319,680.77444 96.0332,681.73537 L 96.0332,687.15822 L 94.45117,687.15822 L 94.45117,681.09377 C 94.45116,680.39065 94.32226,679.86331 94.06445,679.51174 C 93.80663,679.16018 93.38476,678.9844 92.79883,678.98439 C 92.35351,678.9844 91.94189,679.10159 91.56396,679.33596 C 91.18603,679.57034 90.9121,679.91311 90.74219,680.36428 C 90.57226,680.81545 90.4873,681.46584 90.4873,682.31545 L 90.4873,687.15822 L 88.90527,687.15822 z M 110.00781,686.00685 C 109.42187,686.5049 108.8579,686.85646 108.31592,687.06154 C 107.77392,687.26662 107.19238,687.36916 106.57129,687.36916 C 105.54589,687.36916 104.75781,687.11867 104.20703,686.61769 C 103.65625,686.11672 103.38086,685.47658 103.38086,684.69728 C 103.38086,684.24026 103.48486,683.82278 103.69287,683.44484 C 103.90088,683.06692 104.17334,682.7637 104.51025,682.53518 C 104.84716,682.30666 105.22656,682.13381 105.64844,682.01662 C 105.95898,681.93459 106.42773,681.85549 107.05469,681.77932 C 108.33202,681.62698 109.27245,681.44534 109.87597,681.23439 C 109.88183,681.0176 109.88476,680.87991 109.88476,680.82131 C 109.88476,680.17678 109.73534,679.72268 109.43652,679.459 C 109.03222,679.10159 108.43163,678.92288 107.63476,678.92287 C 106.89062,678.92288 106.3413,679.05325 105.98681,679.31398 C 105.63232,679.57473 105.37011,680.03616 105.20019,680.69826 L 103.65332,680.48732 C 103.79394,679.82522 104.02539,679.29055 104.34765,678.88332 C 104.66992,678.4761 105.13574,678.16263 105.74511,677.94289 C 106.35449,677.72317 107.06054,677.61331 107.86328,677.6133 C 108.66015,677.61331 109.30761,677.70706 109.80566,677.89455 C 110.3037,678.08206 110.66991,678.3179 110.90429,678.60207 C 111.13866,678.88626 111.30272,679.24514 111.39648,679.67873 C 111.44921,679.94827 111.47557,680.4346 111.47558,681.13771 L 111.47558,683.24709 C 111.47557,684.7178 111.50927,685.64797 111.57666,686.03762 C 111.64403,686.42727 111.77733,686.8008 111.97656,687.15822 L 110.32422,687.15822 C 110.16015,686.8301 110.05468,686.44631 110.00781,686.00685 L 110.00781,686.00685 z M 109.87597,682.47365 C 109.30175,682.70803 108.44042,682.90725 107.29199,683.07131 C 106.6416,683.16506 106.18163,683.27053 105.91211,683.38771 C 105.64257,683.50491 105.43457,683.67629 105.28808,683.90188 C 105.1416,684.12746 105.06835,684.37795 105.06836,684.65334 C 105.06835,685.07522 105.22802,685.42678 105.54736,685.70803 C 105.86669,685.98928 106.33398,686.1299 106.94922,686.1299 C 107.55859,686.1299 108.10058,685.9966 108.57519,685.73 C 109.0498,685.4634 109.39843,685.09865 109.62109,684.63576 C 109.79101,684.27834 109.87597,683.751 109.87597,683.05373 L 109.87597,682.47365 z M 113.30371,684.37209 L 114.86816,684.126 C 114.95605,684.75295 115.20068,685.23342 115.60205,685.5674 C 116.00341,685.90139 116.56445,686.06838 117.28515,686.06838 C 118.01171,686.06838 118.55077,685.92043 118.90234,685.62453 C 119.2539,685.32863 119.42968,684.98147 119.42969,684.58303 C 119.42968,684.22561 119.27441,683.94436 118.96386,683.73928 C 118.74706,683.59866 118.208,683.41994 117.34668,683.20314 C 116.18652,682.91018 115.38232,682.65676 114.93408,682.44289 C 114.48584,682.22903 114.14599,681.93313 113.91455,681.55519 C 113.6831,681.17727 113.56738,680.75979 113.56738,680.30275 C 113.56738,679.88675 113.66259,679.50149 113.85302,679.14699 C 114.04345,678.79251 114.30273,678.49807 114.63086,678.26369 C 114.87695,678.08206 115.2124,677.92825 115.6372,677.80227 C 116.06201,677.6763 116.51757,677.61331 117.0039,677.6133 C 117.73632,677.61331 118.37939,677.71878 118.9331,677.92971 C 119.48681,678.14065 119.8955,678.4263 120.15918,678.78664 C 120.42284,679.147 120.60448,679.62893 120.7041,680.23244 L 119.15722,680.44338 C 119.08691,679.96292 118.88329,679.58792 118.54638,679.31838 C 118.20946,679.04886 117.73339,678.91409 117.11816,678.91408 C 116.3916,678.91409 115.87304,679.03421 115.5625,679.27443 C 115.25195,679.51468 115.09667,679.79593 115.09668,680.11818 C 115.09667,680.32327 115.16113,680.50784 115.29004,680.67189 C 115.41894,680.84182 115.62109,680.98245 115.89648,681.09377 C 116.05468,681.15237 116.5205,681.28713 117.29394,681.49807 C 118.41308,681.7969 119.19384,682.04153 119.63623,682.23195 C 120.0786,682.42239 120.42577,682.69924 120.67773,683.06252 C 120.92968,683.4258 121.05565,683.87698 121.05566,684.41603 C 121.05565,684.94338 120.90184,685.43996 120.59424,685.90578 C 120.28661,686.3716 119.84276,686.73195 119.26269,686.98684 C 118.68261,687.24172 118.02636,687.36916 117.29394,687.36916 C 116.08105,687.36916 115.15673,687.11721 114.52099,686.6133 C 113.88525,686.1094 113.47949,685.36233 113.30371,684.37209 L 113.30371,684.37209 z M 129.02734,683.73928 L 130.58301,683.94143 C 130.41307,685.01369 129.97802,685.85305 129.27783,686.45949 C 128.57763,687.06594 127.71776,687.36916 126.69824,687.36916 C 125.42089,687.36916 124.39404,686.95168 123.61767,686.11672 C 122.84131,685.28176 122.45312,684.08498 122.45312,682.52639 C 122.45312,681.51858 122.62011,680.63675 122.9541,679.88088 C 123.28808,679.12503 123.79638,678.55813 124.479,678.18019 C 125.16162,677.80228 125.90429,677.61331 126.70703,677.6133 C 127.72069,677.61331 128.5498,677.86966 129.19433,678.38234 C 129.83886,678.89505 130.25194,679.62307 130.43359,680.56643 L 128.89551,680.80373 C 128.74901,680.17678 128.48974,679.70511 128.11767,679.38869 C 127.7456,679.07229 127.29589,678.91409 126.76855,678.91408 C 125.97167,678.91409 125.32421,679.19973 124.82617,679.77102 C 124.32812,680.34231 124.0791,681.24612 124.0791,682.48244 C 124.0791,683.73635 124.31933,684.64748 124.7998,685.21584 C 125.28027,685.7842 125.90722,686.06838 126.68066,686.06838 C 127.30175,686.06838 127.8203,685.87795 128.23633,685.49709 C 128.65233,685.11623 128.91601,684.5303 129.02734,683.73928 L 129.02734,683.73928 z M 131.34765,682.49123 C 131.34765,680.76272 131.82812,679.48245 132.78906,678.65041 C 133.59179,677.95901 134.57031,677.61331 135.72461,677.6133 C 137.0078,677.61331 138.05663,678.03372 138.87109,678.87453 C 139.68554,679.71536 140.09276,680.87698 140.09277,682.35939 C 140.09276,683.56057 139.91259,684.50539 139.55224,685.19387 C 139.19188,685.88234 138.66747,686.41701 137.979,686.79787 C 137.29052,687.17873 136.53905,687.36916 135.72461,687.36916 C 134.41796,687.36916 133.36181,686.95021 132.55615,686.11232 C 131.75048,685.27443 131.34765,684.06741 131.34765,682.49123 L 131.34765,682.49123 z M 132.97363,682.49123 C 132.97363,683.68655 133.23437,684.58156 133.75586,685.17629 C 134.27734,685.77102 134.93359,686.06838 135.72461,686.06838 C 136.50976,686.06838 137.16308,685.76955 137.68457,685.17189 C 138.20604,684.57424 138.46679,683.66311 138.46679,682.4385 C 138.46679,681.2842 138.20458,680.40969 137.68017,679.81496 C 137.15575,679.22024 136.5039,678.92288 135.72461,678.92287 C 134.93359,678.92288 134.27734,679.21878 133.75586,679.81057 C 133.23437,680.40237 132.97363,681.29592 132.97363,682.49123 L 132.97363,682.49123 z M 141.95605,690.73537 L 141.95605,677.82424 L 143.39746,677.82424 L 143.39746,679.03713 C 143.7373,678.56253 144.12109,678.20657 144.54883,677.96926 C 144.97656,677.73196 145.49511,677.61331 146.10449,677.6133 C 146.90136,677.61331 147.60448,677.81839 148.21386,678.22853 C 148.82323,678.6387 149.28319,679.21731 149.59375,679.96438 C 149.90429,680.71145 150.05956,681.5303 150.05957,682.42092 C 150.05956,683.376 149.88817,684.23586 149.54541,685.00051 C 149.20263,685.76516 148.70458,686.35109 148.05127,686.75832 C 147.39794,687.16555 146.71093,687.36916 145.99023,687.36916 C 145.46288,687.36916 144.98974,687.25783 144.5708,687.03518 C 144.15185,686.81252 143.80761,686.53127 143.53808,686.19143 L 143.53808,690.73537 L 141.95605,690.73537 z M 143.38867,682.54396 C 143.38867,683.74514 143.63183,684.63283 144.11816,685.20705 C 144.60449,685.78127 145.19335,686.06838 145.88476,686.06838 C 146.58788,686.06838 147.18993,685.77102 147.69092,685.17629 C 148.19188,684.58156 148.44237,683.66018 148.44238,682.41213 C 148.44237,681.22268 148.19774,680.33206 147.70849,679.74025 C 147.21923,679.14846 146.63476,678.85257 145.95508,678.85256 C 145.28124,678.85257 144.68505,679.16751 144.1665,679.79738 C 143.64794,680.42727 143.38867,681.3428 143.38867,682.54396 L 143.38867,682.54396 z M 158.36523,684.15236 L 160,684.35451 C 159.74218,685.30959 159.26464,686.0508 158.56738,686.57814 C 157.87011,687.10549 156.97948,687.36916 155.89551,687.36916 C 154.53027,687.36916 153.44775,686.94875 152.64795,686.10793 C 151.84814,685.26711 151.44824,684.08791 151.44824,682.57033 C 151.44824,681.00003 151.85254,679.78128 152.66113,678.91408 C 153.46972,678.0469 154.51855,677.61331 155.80761,677.6133 C 157.05566,677.61331 158.07519,678.03811 158.86621,678.88771 C 159.65722,679.73733 160.05272,680.93264 160.05273,682.47365 C 160.05272,682.56741 160.04979,682.70803 160.04394,682.89553 L 153.08301,682.89553 C 153.1416,683.92092 153.43164,684.70608 153.95312,685.251 C 154.4746,685.79592 155.12499,686.06838 155.90429,686.06838 C 156.48437,686.06838 156.97948,685.91604 157.38965,685.61135 C 157.7998,685.30666 158.12499,684.82033 158.36523,684.15236 L 158.36523,684.15236 z M 153.1709,681.59475 L 158.38281,681.59475 C 158.31249,680.8096 158.11327,680.22073 157.78515,679.82814 C 157.28124,679.21878 156.62792,678.91409 155.82519,678.91408 C 155.09863,678.91409 154.48779,679.15725 153.99267,679.64357 C 153.49755,680.12991 153.22363,680.7803 153.1709,681.59475 L 153.1709,681.59475 z M 166.39844,682.49123 C 166.39843,680.76272 166.8789,679.48245 167.83984,678.65041 C 168.64257,677.95901 169.62109,677.61331 170.77539,677.6133 C 172.05858,677.61331 173.10741,678.03372 173.92187,678.87453 C 174.73632,679.71536 175.14354,680.87698 175.14355,682.35939 C 175.14354,683.56057 174.96337,684.50539 174.60302,685.19387 C 174.24266,685.88234 173.71825,686.41701 173.02978,686.79787 C 172.3413,687.17873 171.58984,687.36916 170.77539,687.36916 C 169.46874,687.36916 168.41259,686.95021 167.60693,686.11232 C 166.80127,685.27443 166.39843,684.06741 166.39844,682.49123 L 166.39844,682.49123 z M 168.02441,682.49123 C 168.02441,683.68655 168.28515,684.58156 168.80664,685.17629 C 169.32812,685.77102 169.98437,686.06838 170.77539,686.06838 C 171.56054,686.06838 172.21386,685.76955 172.73535,685.17189 C 173.25683,684.57424 173.51757,683.66311 173.51758,682.4385 C 173.51757,681.2842 173.25536,680.40969 172.73095,679.81496 C 172.20653,679.22024 171.55468,678.92288 170.77539,678.92287 C 169.98437,678.92288 169.32812,679.21878 168.80664,679.81057 C 168.28515,680.40237 168.02441,681.29592 168.02441,682.49123 L 168.02441,682.49123 z M 176.98926,687.15822 L 176.98926,677.82424 L 178.41308,677.82424 L 178.41308,679.23928 C 178.77636,678.57718 179.11181,678.14065 179.41943,677.92971 C 179.72704,677.71878 180.06542,677.61331 180.43457,677.6133 C 180.96777,677.61331 181.50976,677.78323 182.06054,678.12307 L 181.51562,679.59084 C 181.1289,679.36233 180.74218,679.24807 180.35547,679.24807 C 180.00976,679.24807 179.69921,679.35208 179.42383,679.56008 C 179.14843,679.76809 178.95214,680.05667 178.83496,680.4258 C 178.65917,680.98831 178.57128,681.60354 178.57129,682.2715 L 178.57129,687.15822 L 176.98926,687.15822 z M 183.02734,676.09279 L 183.02734,674.27346 L 184.60937,674.27346 L 184.60937,676.09279 L 183.02734,676.09279 z M 183.02734,687.15822 L 183.02734,677.82424 L 184.60937,677.82424 L 184.60937,687.15822 L 183.02734,687.15822 z M 186.73633,687.93166 L 188.27441,688.16018 C 188.33886,688.63478 188.51757,688.98049 188.81054,689.19728 C 189.20312,689.49025 189.73925,689.63674 190.41894,689.63674 C 191.15136,689.63674 191.71679,689.49025 192.11523,689.19728 C 192.51366,688.90432 192.78319,688.49416 192.92383,687.96682 C 193.00585,687.64455 193.04394,686.96779 193.03808,685.93654 C 192.34667,686.751 191.48534,687.15822 190.4541,687.15822 C 189.17089,687.15822 188.17773,686.69533 187.47461,685.76955 C 186.77148,684.84377 186.41992,683.73342 186.41992,682.4385 C 186.41992,681.54788 186.58105,680.7261 186.90332,679.97316 C 187.22558,679.22024 187.69287,678.6387 188.30517,678.22853 C 188.91747,677.81839 189.63671,677.61331 190.46289,677.6133 C 191.56444,677.61331 192.47265,678.05862 193.1875,678.94924 L 193.1875,677.82424 L 194.64648,677.82424 L 194.64648,685.8926 C 194.64647,687.34572 194.49852,688.37551 194.20263,688.98195 C 193.90673,689.5884 193.43798,690.0674 192.79638,690.41896 C 192.15478,690.77052 191.36523,690.9463 190.42773,690.94631 C 189.31445,690.9463 188.41503,690.69582 187.72949,690.19484 C 187.04394,689.69386 186.71289,688.93947 186.73633,687.93166 L 186.73633,687.93166 z M 188.0459,682.32424 C 188.04589,683.54885 188.28906,684.44241 188.77539,685.0049 C 189.26171,685.5674 189.87109,685.84865 190.60351,685.84865 C 191.33007,685.84865 191.93944,685.56887 192.43164,685.0093 C 192.92382,684.44973 193.16991,683.57229 193.16992,682.37697 C 193.16991,681.2344 192.91649,680.37307 192.40967,679.79299 C 191.90282,679.21292 191.29198,678.92288 190.57715,678.92287 C 189.87402,678.92288 189.27636,679.20852 188.78418,679.77981 C 188.29199,680.3511 188.04589,681.19924 188.0459,682.32424 L 188.0459,682.32424 z M 197.05469,676.09279 L 197.05469,674.27346 L 198.63672,674.27346 L 198.63672,676.09279 L 197.05469,676.09279 z M 197.05469,687.15822 L 197.05469,677.82424 L 198.63672,677.82424 L 198.63672,687.15822 L 197.05469,687.15822 z M 201.05371,687.15822 L 201.05371,677.82424 L 202.47754,677.82424 L 202.47754,679.15139 C 203.16308,678.126 204.15331,677.61331 205.44824,677.6133 C 206.01073,677.61331 206.52782,677.71438 206.99951,677.91652 C 207.47118,678.11868 207.82421,678.38382 208.05859,678.71193 C 208.29296,679.04007 208.45702,679.42971 208.55078,679.88088 C 208.60936,680.17386 208.63866,680.68655 208.63867,681.41896 L 208.63867,687.15822 L 207.05664,687.15822 L 207.05664,681.48049 C 207.05663,680.83596 206.99511,680.35403 206.87207,680.03469 C 206.74901,679.71536 206.53075,679.46048 206.21728,679.27004 C 205.9038,679.07962 205.53612,678.9844 205.11426,678.98439 C 204.44042,678.9844 203.85888,679.19827 203.36963,679.626 C 202.88037,680.05374 202.63574,680.86526 202.63574,682.06057 L 202.63574,687.15822 L 201.05371,687.15822 z M 217.16406,686.00685 C 216.57812,686.5049 216.01415,686.85646 215.47217,687.06154 C 214.93017,687.26662 214.34863,687.36916 213.72754,687.36916 C 212.70214,687.36916 211.91406,687.11867 211.36328,686.61769 C 210.8125,686.11672 210.53711,685.47658 210.53711,684.69728 C 210.53711,684.24026 210.64111,683.82278 210.84912,683.44484 C 211.05713,683.06692 211.32959,682.7637 211.6665,682.53518 C 212.00341,682.30666 212.38281,682.13381 212.80469,682.01662 C 213.11523,681.93459 213.58398,681.85549 214.21094,681.77932 C 215.48827,681.62698 216.4287,681.44534 217.03222,681.23439 C 217.03808,681.0176 217.04101,680.87991 217.04101,680.82131 C 217.04101,680.17678 216.89159,679.72268 216.59277,679.459 C 216.18847,679.10159 215.58788,678.92288 214.79101,678.92287 C 214.04687,678.92288 213.49755,679.05325 213.14306,679.31398 C 212.78857,679.57473 212.52636,680.03616 212.35644,680.69826 L 210.80957,680.48732 C 210.95019,679.82522 211.18164,679.29055 211.5039,678.88332 C 211.82617,678.4761 212.29199,678.16263 212.90136,677.94289 C 213.51074,677.72317 214.21679,677.61331 215.01953,677.6133 C 215.8164,677.61331 216.46386,677.70706 216.96191,677.89455 C 217.45995,678.08206 217.82616,678.3179 218.06054,678.60207 C 218.29491,678.88626 218.45897,679.24514 218.55273,679.67873 C 218.60546,679.94827 218.63182,680.4346 218.63183,681.13771 L 218.63183,683.24709 C 218.63182,684.7178 218.66552,685.64797 218.73291,686.03762 C 218.80028,686.42727 218.93358,686.8008 219.13281,687.15822 L 217.48047,687.15822 C 217.3164,686.8301 217.21093,686.44631 217.16406,686.00685 L 217.16406,686.00685 z M 217.03222,682.47365 C 216.458,682.70803 215.59667,682.90725 214.44824,683.07131 C 213.79785,683.16506 213.33788,683.27053 213.06836,683.38771 C 212.79882,683.50491 212.59082,683.67629 212.44433,683.90188 C 212.29785,684.12746 212.2246,684.37795 212.22461,684.65334 C 212.2246,685.07522 212.38427,685.42678 212.70361,685.70803 C 213.02294,685.98928 213.49023,686.1299 214.10547,686.1299 C 214.71484,686.1299 215.25683,685.9966 215.73144,685.73 C 216.20605,685.4634 216.55468,685.09865 216.77734,684.63576 C 216.94726,684.27834 217.03222,683.751 217.03222,683.05373 L 217.03222,682.47365 z M 221.05761,687.15822 L 221.05761,674.27346 L 222.63965,674.27346 L 222.63965,687.15822 L 221.05761,687.15822 z M 226.13769,690.94631 L 225.0039,690.94631 C 226.75585,688.13381 227.63183,685.31838 227.63183,682.50002 C 227.63183,681.39846 227.50585,680.30569 227.2539,679.2217 C 227.05468,678.3428 226.77636,677.49905 226.41894,676.69045 C 226.19042,676.16312 225.71875,675.28421 225.0039,674.05373 L 226.13769,674.05373 C 227.23925,675.52445 228.0537,677.00101 228.58105,678.48342 C 229.03222,679.76077 229.2578,681.0967 229.25781,682.49123 C 229.2578,684.07326 228.95458,685.60256 228.34814,687.07912 C 227.74169,688.55568 227.00488,689.84474 226.13769,690.94631 L 226.13769,690.94631 z " />
</svg>
